<?xml version="1.0"?>
<svg xmlns="http://www.w3.org/2000/svg" width="512" height="512" viewBox="0 0 512 512"><g><path d="M476,184H456V152a48.051,48.051,0,0,0-48-48H296a48,48,0,0,0-40,21.51A48,48,0,0,0,216,104H104a48.051,48.051,0,0,0-48,48v32H36A28.031,28.031,0,0,0,8,212V368a8,8,0,0,0,8,8H32v24a8,8,0,0,0,8,8H64a8,8,0,0,0,7.76-6.06L78.25,376h355.5l6.49,25.94A8,8,0,0,0,448,408h24a8,8,0,0,0,8-8V376h16a8,8,0,0,0,8-8V212A28.031,28.031,0,0,0,476,184ZM57.75,392H48V376H61.75ZM88,360H24V212a12.01,12.01,0,0,1,12-12H76a12.01,12.01,0,0,1,12,12ZM76,184H72V152a32.042,32.042,0,0,1,32-32H216a32.042,32.042,0,0,1,32,32V264H136a47.8,47.8,0,0,0-32,12.26V212A28.031,28.031,0,0,0,76,184ZM408,360H104V312a32.042,32.042,0,0,1,32-32H376a32.042,32.042,0,0,1,32,32Zm0-148v64.26A47.8,47.8,0,0,0,376,264H264V152a32.042,32.042,0,0,1,32-32H408a32.042,32.042,0,0,1,32,32v32h-4A28.031,28.031,0,0,0,408,212Zm56,180h-9.75l-4-16H464Zm24-32H424V212a12.01,12.01,0,0,1,12-12h40a12.01,12.01,0,0,1,12,12Z"/><circle cx="160" cy="160" r="8"/><circle cx="160" cy="208" r="8"/><circle cx="184" cy="184" r="8"/><circle cx="136" cy="184" r="8"/><circle cx="352" cy="160" r="8"/><circle cx="352" cy="208" r="8"/><circle cx="376" cy="184" r="8"/><circle cx="328" cy="184" r="8"/></g></svg>
